<?xml version="1.0" encoding="utf-8"?>
<!-- Generator: Adobe Illustrator 15.1.0, SVG Export Plug-In . SVG Version: 6.00 Build 0)  -->
<!DOCTYPE svg PUBLIC "-//W3C//DTD SVG 1.1//EN" "http://www.w3.org/Graphics/SVG/1.1/DTD/svg11.dtd">
<svg version="1.1" id="Layer_1" xmlns="http://www.w3.org/2000/svg" xmlns:xlink="http://www.w3.org/1999/xlink" x="0px" y="0px"
	 width="665.662px" height="240px" viewBox="0 0 665.662 240" enable-background="new 0 0 665.662 240" xml:space="preserve">
<g>
	<g>
		<linearGradient id="SVGID_1_" gradientUnits="userSpaceOnUse" x1="60" y1="86.2085" x2="180" y2="86.2085">
			<stop  offset="0" style="stop-color:#ED1C24"/>
			<stop  offset="0.0028" style="stop-color:#EE2423"/>
			<stop  offset="0.0226" style="stop-color:#F25520"/>
			<stop  offset="0.0429" style="stop-color:#F67F1D"/>
			<stop  offset="0.0635" style="stop-color:#F9A11B"/>
			<stop  offset="0.0842" style="stop-color:#FCBC19"/>
			<stop  offset="0.1053" style="stop-color:#FECF18"/>
			<stop  offset="0.127" style="stop-color:#FFDA17"/>
			<stop  offset="0.15" style="stop-color:#FFDE17"/>
			<stop  offset="0.3" style="stop-color:#F26522"/>
			<stop  offset="0.47" style="stop-color:#00A14B"/>
			<stop  offset="0.64" style="stop-color:#00AEEF"/>
			<stop  offset="0.8012" style="stop-color:#2E3192"/>
			<stop  offset="1" style="stop-color:#EC008C"/>
		</linearGradient>
		<path fill="url(#SVGID_1_)" d="M180,112.417V77.342C180,67.764,172.236,60,162.658,60H77.342C67.764,60,60,67.764,60,77.342
			v35.075H180z"/>
		<linearGradient id="SVGID_2_" gradientUnits="userSpaceOnUse" x1="60" y1="153.791" x2="180" y2="153.791">
			<stop  offset="0" style="stop-color:#A7A9AC"/>
			<stop  offset="0.0732" style="stop-color:#ADAFB2"/>
			<stop  offset="0.2797" style="stop-color:#B8BABC"/>
			<stop  offset="0.5" style="stop-color:#BCBEC0"/>
			<stop  offset="1" style="stop-color:#414042"/>
		</linearGradient>
		<path fill="url(#SVGID_2_)" d="M60,127.582v35.076C60,172.234,67.764,180,77.342,180h85.316c9.578,0,17.342-7.766,17.342-17.342
			v-35.076H60z"/>
		<circle fill="#FFFFFF" cx="120" cy="120" r="38.518"/>
		<circle fill="#38A9D6" cx="120" cy="120" r="34.849"/>
	</g>
	<g>
		<g>
			<path fill="#FC5D20" d="M239.232,107.878c3.344,3.346,5.018,7.382,5.018,12.106v14.271c0,0.795-0.281,1.463-0.848,2.007
				c-0.564,0.564-1.232,0.847-2.006,0.847h-0.094c-0.775,0-1.443-0.282-2.008-0.847c-0.564-0.544-0.848-1.212-0.848-2.007v-1.443
				c-3.24,2.865-7.016,4.297-11.322,4.297c-4.726,0-8.762-1.673-12.106-5.019c-3.346-3.345-5.019-7.381-5.019-12.106
				c0-4.725,1.673-8.761,5.019-12.106c3.345-3.345,7.381-5.019,12.106-5.019S235.887,104.533,239.232,107.878z M219.096,111.986
				c-2.195,2.217-3.293,4.883-3.293,7.998c0,3.137,1.098,5.813,3.293,8.029c2.217,2.195,4.893,3.293,8.029,3.293
				s5.803-1.098,7.998-3.293c2.216-2.217,3.324-4.893,3.324-8.029c0-3.115-1.108-5.781-3.324-7.998
				c-2.195-2.216-4.861-3.324-7.998-3.324S221.313,109.771,219.096,111.986z"/>
			<path fill="#FC5D20" d="M267.521,113.586c0,0.795-0.281,1.464-0.846,2.008c-0.564,0.564-1.244,0.847-2.039,0.847h-12.828
				c-0.795,0-1.463-0.282-2.008-0.847c-0.564-0.544-0.846-1.213-0.846-2.008v-0.063c0-0.795,0.281-1.475,0.846-2.039
				c0.545-0.564,1.213-0.847,2.008-0.847h12.828c0.795,0,1.475,0.282,2.039,0.847s0.846,1.244,0.846,2.039V113.586z"/>
			<path fill="#FC5D20" d="M293.586,103.675c1.338,0.419,2.008,1.328,2.008,2.729v0.156c0,0.962-0.387,1.725-1.16,2.289
				c-0.795,0.586-1.652,0.732-2.572,0.439c-1.109-0.377-2.258-0.564-3.451-0.564c-3.135,0-5.813,1.109-8.029,3.324
				c-2.195,2.217-3.293,4.894-3.293,8.029c0,3.116,1.098,5.782,3.293,7.998c2.217,2.217,4.895,3.324,8.029,3.324
				c1.193,0,2.342-0.177,3.451-0.533c0.92-0.292,1.777-0.156,2.572,0.408c0.773,0.564,1.16,1.339,1.16,2.32
				c0,1.381-0.67,2.291-2.008,2.729c-1.674,0.522-3.398,0.784-5.176,0.784c-4.725,0-8.76-1.673-12.105-5.019
				c-3.346-3.345-5.02-7.381-5.02-12.106c0-4.725,1.674-8.761,5.02-12.106c3.346-3.345,7.381-5.019,12.105-5.019
				C290.188,102.859,291.912,103.131,293.586,103.675z"/>
			<path fill="#FC5D20" d="M317.109,102.859c4.725,0,8.762,1.674,12.107,5.019c3.344,3.346,5.018,7.382,5.018,12.106
				c0,4.726-1.674,8.762-5.018,12.106c-3.346,3.346-7.383,5.019-12.107,5.019c-4.727,0-8.762-1.673-12.107-5.019
				c-3.346-3.345-5.018-7.381-5.018-12.106c0-4.725,1.672-8.761,5.018-12.106C308.348,104.533,312.383,102.859,317.109,102.859z
				 M317.109,108.725c-3.137,0-5.813,1.109-8.029,3.324c-2.195,2.217-3.293,4.894-3.293,8.029c0,3.116,1.098,5.782,3.293,7.998
				c2.217,2.217,4.893,3.324,8.029,3.324s5.803-1.107,7.998-3.324c2.217-2.216,3.324-4.882,3.324-7.998
				c0-3.136-1.107-5.813-3.324-8.029C322.912,109.834,320.246,108.725,317.109,108.725z"/>
			<path fill="#FC5D20" d="M343.77,90c0.773,0,1.441,0.272,2.008,0.816c0.564,0.564,0.846,1.244,0.846,2.039v41.401
				c0,0.795-0.281,1.463-0.846,2.007c-0.566,0.564-1.234,0.847-2.008,0.847h-0.094c-0.775,0-1.443-0.282-2.008-0.847
				c-0.564-0.544-0.848-1.212-0.848-2.007V92.854c0-0.794,0.283-1.475,0.848-2.039C342.232,90.272,342.9,90,343.676,90H343.77z"/>
			<path fill="#FC5D20" d="M370.334,102.859c4.727,0,8.762,1.674,12.107,5.019c3.346,3.346,5.02,7.382,5.02,12.106
				c0,4.726-1.674,8.762-5.02,12.106c-3.346,3.346-7.381,5.019-12.107,5.019c-4.725,0-8.76-1.673-12.105-5.019
				c-3.346-3.345-5.018-7.381-5.018-12.106c0-4.725,1.672-8.761,5.018-12.106C361.574,104.533,365.609,102.859,370.334,102.859z
				 M370.334,108.725c-3.135,0-5.813,1.109-8.027,3.324c-2.197,2.217-3.295,4.894-3.295,8.029c0,3.116,1.098,5.782,3.295,7.998
				c2.215,2.217,4.893,3.324,8.027,3.324c3.137,0,5.803-1.107,8-3.324c2.215-2.216,3.324-4.882,3.324-7.998
				c0-3.136-1.109-5.813-3.324-8.029C376.137,109.834,373.471,108.725,370.334,108.725z"/>
			<path fill="#FC5D20" d="M407.471,102.859c0.795,0,1.473,0.282,2.039,0.848c0.543,0.563,0.814,1.244,0.814,2.038v0.063
				c0,0.795-0.271,1.464-0.814,2.007c-0.566,0.564-1.244,0.848-2.039,0.848h-1.787c-1.967,0-3.639,0.689-5.02,2.07
				c-1.359,1.379-2.049,3.053-2.07,5.018v18.506c0,0.795-0.281,1.463-0.846,2.007c-0.564,0.564-1.234,0.847-2.008,0.847h-0.094
				c-0.775,0-1.443-0.282-2.008-0.847c-0.564-0.544-0.848-1.212-0.848-2.007V115.75c0.043-3.575,1.297-6.617,3.766-9.127
				c2.508-2.51,5.551-3.764,9.127-3.764H407.471z"/>
			<path fill="#FC5D20" d="M430.773,113.586c0,0.795-0.281,1.464-0.846,2.008c-0.564,0.564-1.244,0.847-2.039,0.847h-12.828
				c-0.795,0-1.465-0.282-2.008-0.847c-0.564-0.544-0.846-1.213-0.846-2.008v-0.063c0-0.795,0.281-1.475,0.846-2.039
				c0.543-0.564,1.213-0.847,2.008-0.847h12.828c0.795,0,1.475,0.282,2.039,0.847s0.846,1.244,0.846,2.039V113.586z"/>
			<path fill="#FC5D20" d="M438.334,150c-0.775,0-1.443-0.282-2.008-0.847s-0.848-1.233-0.848-2.007v-27.225
				c0.021-4.726,1.705-8.751,5.051-12.075c3.324-3.325,7.35-4.987,12.074-4.987c4.727,0,8.762,1.674,12.107,5.019
				c3.346,3.346,5.018,7.382,5.018,12.106c0,4.726-1.672,8.762-5.018,12.106c-3.346,3.346-7.381,5.019-12.107,5.019
				c-4.328,0-8.102-1.432-11.322-4.297v14.334c0,0.773-0.283,1.442-0.848,2.007c-0.563,0.564-1.232,0.847-2.006,0.847H438.334z
				 M460.602,127.92c2.217-2.217,3.324-4.883,3.324-7.998c0-3.137-1.107-5.813-3.324-8.029c-2.195-2.195-4.861-3.293-7.998-3.293
				s-5.813,1.098-8.029,3.293c-2.195,2.217-3.293,4.893-3.293,8.029c0,3.115,1.098,5.781,3.293,7.998
				c2.217,2.217,4.893,3.324,8.029,3.324S458.406,130.137,460.602,127.92z"/>
			<path fill="#FC5D20" d="M479.139,96.9c-0.963,0-1.777-0.334-2.447-1.004c-0.67-0.669-1.004-1.484-1.004-2.446
				c0-0.941,0.334-1.746,1.004-2.415c0.67-0.669,1.484-1.004,2.447-1.004c0.939,0,1.744,0.335,2.414,1.004
				c0.689,0.669,1.035,1.474,1.035,2.415c0,0.962-0.346,1.777-1.035,2.446C480.883,96.566,480.078,96.9,479.139,96.9z
				 M479.17,102.859c0.793,0,1.463,0.282,2.006,0.848c0.564,0.563,0.848,1.244,0.848,2.038v28.511c0,0.795-0.283,1.463-0.848,2.007
				c-0.543,0.564-1.213,0.847-2.006,0.847h-0.063c-0.795,0-1.475-0.282-2.039-0.847c-0.564-0.544-0.848-1.212-0.848-2.007v-28.511
				c0-0.794,0.283-1.475,0.848-2.038c0.564-0.565,1.244-0.848,2.039-0.848H479.17z"/>
			<path fill="#FC5D20" d="M510.848,103.675c1.338,0.419,2.008,1.328,2.008,2.729v0.156c0,0.962-0.389,1.725-1.16,2.289
				c-0.795,0.586-1.652,0.732-2.572,0.439c-1.109-0.377-2.26-0.564-3.451-0.564c-3.137,0-5.813,1.109-8.029,3.324
				c-2.195,2.217-3.293,4.894-3.293,8.029c0,3.116,1.098,5.782,3.293,7.998c2.217,2.217,4.893,3.324,8.029,3.324
				c1.191,0,2.342-0.177,3.451-0.533c0.92-0.292,1.777-0.156,2.572,0.408c0.771,0.564,1.16,1.339,1.16,2.32
				c0,1.381-0.67,2.291-2.008,2.729c-1.672,0.522-3.398,0.784-5.176,0.784c-4.725,0-8.762-1.673-12.105-5.019
				c-3.346-3.345-5.02-7.381-5.02-12.106c0-4.725,1.674-8.761,5.02-12.106c3.344-3.345,7.381-5.019,12.105-5.019
				C507.449,102.859,509.176,103.131,510.848,103.675z"/>
			<path fill="#FC5D20" d="M521.135,90c0.773,0,1.443,0.272,2.008,0.816c0.564,0.564,0.846,1.244,0.846,2.039v22.677h2.133
				c2.906,0,5.447-0.973,7.623-2.918c2.131-1.944,3.344-4.338,3.637-7.182c0.084-0.732,0.398-1.338,0.941-1.819
				c0.543-0.502,1.182-0.753,1.914-0.753h0.094c0.836,0,1.537,0.313,2.102,0.941c0.564,0.627,0.805,1.369,0.721,2.227
				c-0.48,4.977-2.74,8.971-6.775,11.98c2.51,1.527,4.496,3.566,5.961,6.117c1.525,2.635,2.289,5.479,2.289,8.531v1.6
				c0,0.795-0.281,1.463-0.848,2.007c-0.564,0.564-1.232,0.847-2.008,0.847h-0.094c-0.773,0-1.441-0.282-2.006-0.847
				c-0.564-0.544-0.848-1.212-0.848-2.007v-1.6c-0.021-3.116-1.129-5.771-3.324-7.967c-2.217-2.195-4.883-3.293-7.998-3.293h-3.514
				v12.859c0,0.795-0.281,1.463-0.846,2.007c-0.564,0.564-1.234,0.847-2.008,0.847h-0.094c-0.773,0-1.443-0.282-2.008-0.847
				c-0.564-0.544-0.848-1.212-0.848-2.007V92.854c0-0.794,0.283-1.475,0.848-2.039c0.564-0.544,1.234-0.816,2.008-0.816H521.135z"/>
			<path fill="#FC5D20" d="M581.699,112.865c0.336,0.711,0.367,1.441,0.096,2.195c-0.273,0.732-0.775,1.266-1.506,1.6
				c-2.928,1.316-6.775,3.053-11.543,5.206c-5.918,2.677-9.754,4.412-11.51,5.206c2.258,2.886,5.227,4.328,8.908,4.328
				c2.445,0,4.66-0.721,6.648-2.164c1.924-1.4,3.271-3.219,4.045-5.457c0.461-1.296,1.381-1.944,2.762-1.944
				c0.982,0,1.766,0.407,2.352,1.224c0.564,0.795,0.678,1.662,0.346,2.603c-1.172,3.388-3.221,6.127-6.148,8.218
				c-2.99,2.154-6.324,3.23-10.004,3.23c-4.727,0-8.762-1.673-12.107-5.019c-3.346-3.345-5.02-7.381-5.02-12.106
				c0-4.725,1.674-8.761,5.02-12.106c3.346-3.345,7.381-5.019,12.107-5.019c3.406,0,6.521,0.931,9.346,2.791
				C578.27,107.47,580.342,109.875,581.699,112.865z M566.145,108.725c-3.139,0-5.814,1.109-8.031,3.324
				c-2.195,2.217-3.293,4.894-3.293,8.029c0,0.564,0.041,1.119,0.125,1.662l19.855-8.97
				C572.541,110.073,569.656,108.725,566.145,108.725z"/>
			<path fill="#FC5D20" d="M602.809,102.859c0.793,0,1.475,0.282,2.037,0.848c0.545,0.563,0.816,1.244,0.816,2.038v0.063
				c0,0.795-0.271,1.464-0.816,2.007c-0.563,0.564-1.244,0.848-2.037,0.848h-1.787c-1.967,0-3.639,0.689-5.02,2.07
				c-1.359,1.379-2.049,3.053-2.07,5.018v18.506c0,0.795-0.281,1.463-0.846,2.007c-0.566,0.564-1.234,0.847-2.008,0.847h-0.094
				c-0.773,0-1.443-0.282-2.008-0.847c-0.564-0.544-0.848-1.212-0.848-2.007V115.75c0.043-3.575,1.297-6.617,3.764-9.127
				c2.51-2.51,5.553-3.764,9.129-3.764H602.809z"/>
		</g>
	</g>
</g>
</svg>
